<svg height="448pt" viewBox="0 0 448 448" width="448pt" xmlns="http://www.w3.org/2000/svg"><path d="m213.71875 202.398438c3.203125-1.5625 6.71875-2.382813 10.28125-2.398438 13.253906 0 24 10.746094 24 24-.015625 3.5625-.835938 7.078125-2.398438 10.28125l8.566407 8.558594 61.246093-110.246094-110.253906 61.246094zm0 0"/><path d="m224 248c-13.253906 0-24-10.746094-24-24 .015625-3.5625.835938-7.078125 2.398438-10.28125l-8.566407-8.558594-61.238281 110.246094 110.246094-61.246094-8.558594-8.558594c-3.203125 1.5625-6.71875 2.382813-10.28125 2.398438zm0 0"/><path d="m224 0c-123.710938 0-224 100.289062-224 224s100.289062 224 224 224 224-100.289062 224-224c-.140625-123.652344-100.347656-223.859375-224-224zm-168 232h-32c-4.417969 0-8-3.582031-8-8s3.582031-8 8-8h32c4.417969 0 8 3.582031 8 8s-3.582031 8-8 8zm160-208c0-4.417969 3.582031-8 8-8s8 3.582031 8 8v32c0 4.417969-3.582031 8-8 8s-8-3.582031-8-8zm16 400c0 4.417969-3.582031 8-8 8s-8-3.582031-8-8v-32c0-4.417969 3.582031-8 8-8s8 3.582031 8 8zm110.992188-308.121094-80 144c-.0625.121094-.183594.175782-.257813.28125-.769531.941406-1.632813 1.804688-2.574219 2.574219-.105468.074219-.160156.195313-.28125.257813l-144 80c-3.121094 1.726562-7.003906 1.175781-9.527344-1.34375-2.519531-2.523438-3.070312-6.40625-1.34375-9.527344l80-144c.0625-.121094.183594-.175782.257813-.28125.769531-.941406 1.632813-1.804688 2.574219-2.574219.105468-.074219.160156-.195313.28125-.257813l144-80c3.121094-1.726562 7.003906-1.175781 9.527344 1.34375 2.519531 2.523438 3.070312 6.40625 1.34375 9.527344zm81.007812 116.121094h-32c-4.417969 0-8-3.582031-8-8s3.582031-8 8-8h32c4.417969 0 8 3.582031 8 8s-3.582031 8-8 8zm0 0"/><path d="m232 224c0 4.417969-3.582031 8-8 8s-8-3.582031-8-8 3.582031-8 8-8 8 3.582031 8 8zm0 0"/></svg>