<svg height="480pt" viewBox="0 0 480 480" width="480pt" xmlns="http://www.w3.org/2000/svg"><path d="m320 240c0 44.183594-35.816406 80-80 80s-80-35.816406-80-80 35.816406-80 80-80 80 35.816406 80 80zm0 0"/><path d="m16 384c.128906-98.574219 64.578125-185.523438 158.855469-214.3125 17.679687-16.5 40.960937-25.683594 65.144531-25.6875-132.484375.148438-239.851562 107.515625-240 240 0 4.417969 3.582031 8 8 8s8-3.582031 8-8zm0 0"/><path d="m96 0c-4.417969 0-8 3.582031-8 8s3.582031 8 8 8c98.574219.128906 185.523438 64.578125 214.3125 158.855469 16.5 17.679687 25.679688 40.960937 25.6875 65.144531-.148438-132.484375-107.515625-239.851562-240-240zm0 0"/><path d="m472 88c-4.417969 0-8 3.582031-8 8-.128906 98.574219-64.578125 185.523438-158.855469 214.3125-17.679687 16.5-40.960937 25.683594-65.144531 25.6875 132.484375-.148438 239.851562-107.515625 240-240 0-4.417969-3.582031-8-8-8zm0 0"/><path d="m384 464c-98.574219-.128906-185.523438-64.578125-214.3125-158.855469-16.5-17.679687-25.679688-40.960937-25.6875-65.144531.148438 132.484375 107.515625 239.851562 240 240 4.417969 0 8-3.582031 8-8s-3.582031-8-8-8zm0 0"/></svg>