<svg height="439pt" viewBox="0 -19 439.91298 439" width="439pt" xmlns="http://www.w3.org/2000/svg"><path d="m418.335938 151.074219c-45.066407-.980469-80.84375-38.238281-80-83.304688.210937-26.128906 12.113281-50.785156 32.441406-67.199219-2.488282-.113281-4.9375-.113281-7.296875-.113281-50.414063 0-91.429688 43.0625-91.429688 96 0 1.597657.046875 3.199219.148438 4.910157.800781 0 1.601562.113281 2.347656.160156.941406.050781 1.886719.097656 2.820313.183594 1.121093.105468 2.234374.257812 3.335937.410156.945313.128906 1.898437.246094 2.832031.40625 1.082032.183594 2.144532.425781 3.203125.65625.933594.199218 1.871094.394531 2.789063.625 1.050781.273437 2.074218.582031 3.105468.894531s1.839844.539063 2.746094.839844c.902344.304687 1.980469.738281 2.964844 1.113281s1.808594.679688 2.6875 1.0625c.882812.386719 1.890625.867188 2.832031 1.3125.945313.449219 1.753907.800781 2.609375 1.265625.855469.464844 1.792969 1.007813 2.6875 1.519531.898438.511719 1.6875.953125 2.511719 1.464844s1.707031 1.136719 2.554687 1.710938c.847657.578124 1.597657 1.0625 2.398438 1.601562.800781.535156 1.601562 1.269531 2.398438 1.910156.800781.640625 1.503906 1.175782 2.234374 1.800782.726563.625 1.527344 1.398437 2.289063 2.113281.757813.710937 1.398437 1.269531 2.070313 1.941406.671874.671875 1.433593 1.539063 2.144531 2.3125.710937.777344 1.277343 1.351563 1.878906 2.054687.601563.707032 1.351563 1.691407 2.015625 2.546876.5625.710937 1.136719 1.40625 1.671875 2.144531.664063.910156 1.265625 1.863281 1.890625 2.804687.46875.722656.972656 1.417969 1.421875 2.152344.632813 1.042969 1.199219 2.113281 1.785156 3.203125.375.6875.800781 1.351563 1.136719 2.054687.613281 1.207032 1.152344 2.464844 1.703125 3.71875.261719.59375.558594 1.167969.800781 1.769532.757813 1.871094 1.453125 3.785156 2.070313 5.726562 3.621093-.421875 7.261719-.632812 10.902343-.632812 3.011719 0 5.984376.167968 8.945313.441406.921875.089844 1.816406.242188 2.730469.351562 2.039062.257813 4.070312.535157 6.078125.914063.992187.191406 1.960937.429687 2.9375.648437 1.917969.421876 3.816406.894532 5.6875 1.4375.933593.273438 1.855469.5625 2.773437.863282 1.894532.609375 3.761719 1.28125 5.601563 2.015625.800781.328125 1.671875.671875 2.503906 1.027343 1.886719.796876 3.734375 1.695313 5.601563 2.628907.734374.378906 1.480468.746093 2.199218 1.136719 1.855469 1.015624 3.664063 2.113281 5.457032 3.25.644531.414062 1.308593.796874 1.949218 1.230468 1.800782 1.214844 3.546875 2.519532 5.265625 3.863282.558594.441406 1.136719.800781 1.679688 1.28125.214843.175781.449219.328124.664062.503906 10.042969-7.355469 18.480469-16.679688 24.800781-27.40625-7.042968 1.835937-14.296874 2.738281-21.578124 2.671875zm0 0"/><path d="m312.050781 360.457031c0-11.242187-8.800781-32.3125-17.464843-50.214843-.578126-1.203126-1.152344-2.402344-1.730469-3.546876l-1.527344-3.039062c-1.121094-2.230469-2.222656-4.390625-3.277344-6.398438-1.058593 2.023438-2.160156 4.183594-3.28125 6.398438l-1.527343 3.070312c-.578126 1.171876-1.152344 2.347657-1.730469 3.546876-8.664063 17.871093-17.460938 38.984374-17.460938 50.183593 0 13.253907 10.742188 24 24 24 13.253907 0 24-10.746093 24-24zm0 0"/><path d="m407.808594 190.777344c-1.6875-1.542969-3.421875-3.03125-5.230469-4.417969-.65625-.503906-1.335937-.976563-2.007813-1.460937-1.839843-1.3125-3.730468-2.5625-5.671874-3.707032-.496094-.292968-.976563-.589844-1.472657-.871094-7.816406-4.375-16.324219-7.382812-25.152343-8.894531l-1.183594-.175781c-2.402344-.386719-4.890625-.632812-7.351563-.800781-.738281-.039063-1.472656-.082031-2.21875-.105469-2.246093-.078125-4.503906 0-6.757812.089844-.746094.039062-1.480469.046875-2.226563.109375-2.925781.222656-5.839844.613281-8.726562 1.167969-4.308594.851562-8.5-1.933594-9.382813-6.238282-6.210937-28.273437-31.355469-48.351562-60.304687-48.144531-1.289063 0-2.550782.128906-3.824219.207031l-.800781.058594h-.085938c-7.277344.523438-14.40625 2.324219-21.058594 5.320312-2.011718.90625-4.308593.941407-6.34375.097657-2.039062-.84375-3.640624-2.492188-4.421874-4.554688-12.773438-32.644531-44.285157-54.089843-79.335938-54-46.191406-.5-84.070312 36.476563-84.6875 82.664063.019531 9.417968 1.695312 18.761718 4.949219 27.597656.882812 2.417969.546875 5.109375-.894531 7.234375-1.445313 2.125-3.824219 3.429687-6.390626 3.503906-24.296874.101563-46.667968 13.253907-58.570312 34.4375-11.902344 21.179688-11.507812 47.125 1.039062 67.933594 12.546876 20.804687 35.304688 33.269531 59.59375 32.628906h45.160157c6.777343-14.074219 13.167969-25.410156 14.632812-28 1.539063-2.332031 4.148438-3.738281 6.941407-3.738281 2.796874 0 5.40625 1.40625 6.945312 3.738281 1.464844 2.558594 7.855469 13.894531 14.632812 28h101.648438c6.496094-15.046875 13.796875-29.734375 21.871094-44 1.539062-2.332031 4.148437-3.738281 6.945312-3.738281 2.792969 0 5.402344 1.40625 6.941406 3.738281 8.0625 14.265625 15.351563 28.953125 21.839844 44h38.21875c41.980469.464844 76.417969-33.132812 76.984375-75.113281-.0625-20.785156-8.859375-40.585938-24.242187-54.566406zm-199.757813 113.679687c-22.082031-.027343-39.976562-17.921875-40-40 0-25.390625 29.671875-78.046875 33.054688-84 1.539062-2.332031 4.148437-3.738281 6.945312-3.738281 2.792969 0 5.402344 1.40625 6.941407 3.738281 3.386718 5.953125 33.058593 58.609375 33.058593 84-.027343 22.078125-17.921875 39.972657-40 40zm0 0"/><path d="m184.050781 264.457031c0 13.253907 10.742188 24 24 24 13.253907 0 24-10.746093 24-24 0-14.144531-13.90625-43.914062-24-63.25-10.097656 19.335938-24 49.105469-24 63.25zm0 0"/><path d="m112.050781 376.457031c0 13.253907 10.742188 24 24 24 13.253907 0 24-10.746093 24-24 0-14.144531-13.90625-43.914062-24-63.25-10.097656 19.335938-24 49.105469-24 63.25zm0 0"/></svg>