<svg height="448pt" viewBox="0 -104 448 448" width="448pt" xmlns="http://www.w3.org/2000/svg"><path d="m224 0c-123.652344.140625-223.859375 100.347656-224 224v16h16v-16c0-114.875 93.125-208 208-208s208 93.125 208 208v16h16v-16c-.140625-123.652344-100.347656-223.859375-224-224zm0 0"/><path d="m224 32c-105.988281.125-191.875 86.011719-192 192v16h16v-16c0-97.203125 78.796875-176 176-176s176 78.796875 176 176v16h16v-16c-.125-105.988281-86.011719-191.875-192-192zm0 0"/><path d="m224 64c-88.324219.101562-159.898438 71.675781-160 160v16h16v-16c0-79.527344 64.472656-144 144-144s144 64.472656 144 144v16h16v-16c-.101562-88.324219-71.675781-159.898438-160-160zm0 0"/></svg>