<svg height="447pt" viewBox="0 -47 447.688 447" width="447pt" xmlns="http://www.w3.org/2000/svg"><path d="m447.6875 321.230469c-.113281-17.265625-14.179688-31.179688-31.449219-31.109375-2.09375 0-4.183593.207031-6.238281.613281-4.324219.871094-8.535156-1.925781-9.414062-6.246094-1.535157-7.226562-6.277344-13.363281-12.878907-16.675781-6.605469-3.3125-14.355469-3.441406-21.066406-.347656-2.019531.921875-4.332031.964844-6.382813.117187-2.050781-.851562-3.65625-2.511719-4.433593-4.589843-5.972657-15.757813-22.308594-25.039063-38.902344-22.105469-16.59375 2.933593-28.753906 17.253906-28.960937 34.105469.007812 3.949218.703124 7.863281 2.054687 11.574218.863281 2.414063.523437 5.09375-.921875 7.210938-1.441406 2.113281-3.8125 3.410156-6.375 3.488281-15.105469.351563-27.105469 12.816406-26.886719 27.925781.21875 15.113282 12.578125 27.222656 27.6875 27.136719h132.71875c17.261719.070313 31.328125-13.835937 31.449219-31.097656zm0 0"/><path d="m31.136719 352.34375h132.695312c15.113281.085938 27.46875-12.023438 27.6875-27.136719.21875-15.109375-11.78125-27.574219-26.886719-27.925781-2.5625-.078125-4.929687-1.375-6.375-3.488281-1.445312-2.117188-1.785156-4.796875-.921874-7.207031 1.351562-3.710938 2.046874-7.628907 2.054687-11.578126-.207031-16.847656-12.367187-31.167968-28.960937-34.105468-16.59375-2.933594-32.929688 6.347656-38.902344 22.105468-.777344 2.078126-2.382813 3.742188-4.433594 4.589844s-4.363281.804688-6.382812-.117187c-6.710938-3.09375-14.460938-2.964844-21.066407.347656-6.601562 3.3125-11.339843 9.449219-12.875 16.675781-.882812 4.324219-5.09375 7.117188-9.417969 6.25-2.054687-.410156-4.144531-.617187-6.238281-.617187-17.183593 0-31.113281 13.929687-31.113281 31.109375 0 17.183594 13.929688 31.113281 31.113281 31.113281zm0 0"/><path d="m414.089844 274.167969c3.210937-.125 6.425781.066406 9.597656.574219v-74.398438c0-110.457031-89.542969-200-200-200s-200 89.542969-200 200v74.398438c3.171875-.511719 6.390625-.703126 9.601562-.574219 1.570313-3.816407 3.730469-7.363281 6.398438-10.511719v-63.3125c0-101.621094 82.378906-184 184-184s184 82.378906 184 184v63.3125c2.667969 3.148438 4.828125 6.695312 6.402344 10.511719zm0 0"/><path d="m71.6875 249.296875v-48.953125c0-83.945312 68.054688-152 152-152 83.949219 0 152 68.054688 152 152v48.953125c.367188 0 .726562-.066406 1.105469-.066406 5.109375.03125 10.164062 1.039062 14.894531 2.96875v-51.855469c0-92.785156-75.214844-168-168-168s-168 75.214844-168 168v51.855469c4.730469-1.929688 9.789062-2.9375 14.898438-2.96875.375 0 .734374.058593 1.101562.066406zm0 0"/><path d="m103.6875 200.34375c0-66.273438 53.726562-120 120-120s120 53.726562 120 120v28.457031c5.992188 2.65625 11.425781 6.433594 16 11.128907v-39.585938c0-75.109375-60.890625-136-136-136s-136 60.890625-136 136v39.585938c4.578125-4.695313 10.007812-8.472657 16-11.128907zm0 0"/></svg>