<svg height="454pt" viewBox="0 -14 454.25369 454" width="454pt" xmlns="http://www.w3.org/2000/svg"><path d="m408.695312 98.46875-48 48c-2.078124 2.007812-2.914062 4.984375-2.179687 7.78125.730469 2.796875 2.914063 4.980469 5.710937 5.710938 2.796876.734374 5.773438-.101563 7.78125-2.179688l48-48c3.03125-3.140625 2.988282-8.128906-.097656-11.214844-3.085937-3.085937-8.074218-3.128906-11.214844-.097656zm0 0"/><path d="m236.007812 293.78125 112-112c3.03125-3.140625 2.988282-8.128906-.097656-11.214844-3.085937-3.085937-8.074218-3.128906-11.214844-.097656l-112 112c-2.078124 2.007812-2.914062 4.984375-2.179687 7.78125.730469 2.796875 2.914063 4.980469 5.710937 5.710938 2.796876.734374 5.773438-.101563 7.78125-2.179688zm0 0"/><path d="m328.695312 90.46875-48 48c-2.078124 2.007812-2.914062 4.984375-2.179687 7.78125.730469 2.796875 2.914063 4.980469 5.710937 5.710938 2.796876.734374 5.773438-.101563 7.78125-2.179688l48-48c3.03125-3.140625 2.988282-8.128906-.097656-11.214844-3.085937-3.085937-8.074218-3.128906-11.214844-.097656zm0 0"/><path d="m256.695312 162.46875-112 112c-2.078124 2.007812-2.914062 4.984375-2.179687 7.78125.730469 2.796875 2.914063 4.980469 5.710937 5.710938 2.796876.734374 5.773438-.101563 7.78125-2.179688l112-112c3.03125-3.140625 2.988282-8.128906-.097656-11.214844-3.085937-3.085937-8.074218-3.128906-11.214844-.097656zm0 0"/><path d="m156.703125 336.925781-49.800781-6.976562c-2.578125-.363281-4.816406-1.957031-6.007813-4.273438l-22.542969-44-22.542968 44c-1.1875 2.316407-3.429688 3.910157-6.007813 4.273438l-49.800781 6.976562 35.832031 33.664063c1.960938 1.84375 2.863281 4.546875 2.398438 7.199218l-8.519531 47.9375 45.023437-22.808593c2.261719-1.152344 4.941406-1.152344 7.203125 0l45.054688 22.808593-8.511719-47.898437c-.460938-2.648437.441406-5.355469 2.398437-7.199219zm0 0"/><path d="m440.695312 146.46875-208 208c-2.078124 2.007812-2.914062 4.984375-2.179687 7.78125.730469 2.796875 2.914063 4.980469 5.710937 5.710938 2.796876.734374 5.773438-.101563 7.78125-2.179688l208-208c3.03125-3.140625 2.988282-8.128906-.097656-11.214844-3.085937-3.085937-8.074218-3.128906-11.214844-.097656zm0 0"/><path d="m348.007812 2.46875c-3.125-3.121094-8.1875-3.121094-11.3125 0l-208 208c-2.078124 2.007812-2.914062 4.984375-2.179687 7.78125.730469 2.796875 2.914063 4.980469 5.710937 5.710938 2.796876.734374 5.773438-.101563 7.78125-2.179688l208-208c3.125-3.125 3.125-8.1875 0-11.3125zm0 0"/></svg>