<svg height="448pt" viewBox="0 -40 448.91733 448" width="448pt" xmlns="http://www.w3.org/2000/svg"><path d="m368.917969 112.292969c-5.324219.007812-10.632813.542969-15.847657 1.601562-4.332031.871094-8.554687-1.933593-9.425781-6.265625-6.070312-29.832031-32.28125-51.285156-62.726562-51.335937-9.230469 0-18.351563 2.019531-26.71875 5.910156-2.027344.9375-4.347657.984375-6.410157.132813-2.058593-.847657-3.671874-2.519532-4.449218-4.609376-16.832032-45.257812-67.011719-68.46875-112.398438-51.992187-45.382812 16.480469-68.984375 66.476563-52.863281 111.992187.855469 2.40625.511719 5.082032-.929687 7.195313-1.445313 2.109375-3.808594 3.40625-6.367188 3.484375-39.691406.644531-71.363281 33.316406-70.7734375 73.007812.5898435 39.695313 33.2148435 71.410157 72.9101565 70.878907h180.320312c9.066407-10.179688 22.046875-16 35.679688-16 13.628906 0 26.613281 5.820312 35.679687 16h44.320313c44.183593 0 80-35.816407 80-80 0-44.183594-35.816407-80-80-80zm-160 144c-26.511719 0-48-21.492188-48-48 0-26.511719 21.488281-48 48-48 26.507812 0 48 21.488281 48 48-.027344 26.5-21.5 47.972656-48 48zm0 0"/><path d="m240.917969 208.292969c0 17.671875-14.328125 32-32 32s-32-14.328125-32-32 14.328125-32 32-32 32 14.328125 32 32zm0 0"/><path d="m184.917969 336.292969c0 17.671875-14.328125 32-32 32s-32-14.328125-32-32 14.328125-32 32-32 32 14.328125 32 32zm0 0"/><path d="m320.917969 304.292969c0 17.671875-14.328125 32-32 32s-32-14.328125-32-32 14.328125-32 32-32 32 14.328125 32 32zm0 0"/></svg>