<svg height="447pt" viewBox="0 -12 447.8 447" width="447pt" xmlns="http://www.w3.org/2000/svg"><path d="m223.800781 423.035156c23.769531.023438 47.421875-3.378906 70.222657-10.097656-10.015626 1.394531-20.113282 2.097656-30.222657 2.097656-112.152343 0-200-84.335937-200-192 0-83.945312 68.050781-152 152-152 83.945313 0 152 68.054688 152 152 0 57.4375-46.5625 104-104 104s-104-46.5625-104-104c0-30.929687 25.070313-56 56-56 30.925781 0 56 25.070313 56 56 0 4.417969-3.582031 8-8 8s-8-3.582031-8-8c0-22.089844-17.910156-40-40-40-22.09375 0-40 17.910156-40 40 0 48.601563 39.398438 88 88 88 48.601563 0 88-39.398437 88-88 0-75.109375-60.890625-136-136-136-75.113281 0-136 60.890625-136 136 0 98.6875 80.800781 176 184 176s184-77.3125 184-176c-.742187-121.617187-98.394531-220.425781-219.996093-222.597656-121.601563-2.175781-222.71875 93.082031-227.804688 214.597656 1.929688 55.058594 24.15625 107.457032 62.398438 147.113282 44.414062 39.570312 101.921874 61.265624 161.402343 60.886718zm0 0"/></svg>