<svg height="448pt" viewBox="0 0 448 448" width="448pt" xmlns="http://www.w3.org/2000/svg"><path d="m224 448c4.417969 0 8-3.582031 8-8v-28.6875l18.34375 18.34375c3.140625 3.03125 8.128906 2.988281 11.214844-.097656 3.085937-3.085938 3.128906-8.074219.097656-11.214844l-29.65625-29.65625v-109.328125c-5.300781.855469-10.699219.855469-16 0v109.328125l-29.65625 29.65625c-3.03125 3.140625-2.988281 8.128906.097656 11.214844 3.085938 3.085937 8.074219 3.128906 11.214844.097656l18.34375-18.34375v28.6875c0 4.417969 3.582031 8 8 8zm0 0"/><path d="m224 0c-4.417969 0-8 3.582031-8 8v28.6875l-18.34375-18.34375c-3.140625-3.03125-8.128906-2.988281-11.214844.097656-3.085937 3.085938-3.128906 8.074219-.097656 11.214844l29.65625 29.65625v109.328125c5.300781-.855469 10.699219-.855469 16 0v-109.328125l29.65625-29.65625c2.078125-2.007812 2.914062-4.984375 2.179688-7.78125-.730469-2.796875-2.914063-4.980469-5.710938-5.710938-2.796875-.734374-5.773438.101563-7.78125 2.179688l-18.34375 18.34375v-28.6875c0-4.417969-3.582031-8-8-8zm0 0"/><path d="m373.007812 373-11.601562-46.398438-46.414062-11.601562 11.601562 46.398438zm0 0"/><path d="m74.992188 373 46.414062-11.601562 11.601562-46.398438-46.414062 11.601562zm0 0"/><path d="m373.007812 75-46.414062 11.601562-11.601562 46.398438 46.414062-11.601562zm0 0"/><path d="m121.40625 86.601562-46.414062-11.601562 11.601562 46.398438 46.414062 11.601562zm0 0"/><path d="m8 232h28.6875l-18.34375 18.34375c-2.078125 2.007812-2.914062 4.984375-2.179688 7.78125.730469 2.796875 2.914063 4.980469 5.710938 5.710938 2.796875.734374 5.773438-.101563 7.78125-2.179688l29.65625-29.65625h109.328125c-.855469-5.300781-.855469-10.699219 0-16h-109.328125l-29.65625-29.65625c-3.140625-3.03125-8.128906-2.988281-11.214844.097656-3.085937 3.085938-3.128906 8.074219-.097656 11.214844l18.34375 18.34375h-28.6875c-4.417969 0-8 3.582031-8 8s3.582031 8 8 8zm0 0"/><path d="m179.199219 257.472656-14.03125 14.046875-52-7.441406c-4.375-.625-8.429688 2.410156-9.054688 6.785156-.628906 4.375 2.410157 8.429688 6.78125 9.058594l40.167969 5.734375-12.6875 12.6875c-2.078125 2.007812-2.914062 4.984375-2.179688 7.78125.730469 2.796875 2.914063 4.980469 5.710938 5.710938 2.796875.734374 5.773438-.101563 7.78125-2.179688l12.6875-12.6875 5.738281 40.167969c.625 4.375 4.679688 7.410156 9.054688 6.785156 4.375-.628906 7.410156-4.683594 6.785156-9.058594l-7.433594-52 14.007813-14.0625c-4.296875-3.214843-8.113282-7.03125-11.328125-11.328125zm0 0"/><path d="m343.921875 270.863281c-.628906-4.375-4.683594-7.410156-9.058594-6.785156l-52 7.441406-14.0625-14.046875c-3.214843 4.296875-7.03125 8.113282-11.328125 11.328125l14.039063 14.039063-7.433594 52c-.625 4.375 2.410156 8.429687 6.785156 9.054687 4.375.628907 8.429688-2.410156 9.058594-6.78125l5.734375-40.167969 12.6875 12.6875c3.140625 3.03125 8.128906 2.988282 11.214844-.097656 3.085937-3.085937 3.128906-8.074218.097656-11.214844l-12.6875-12.6875 40.167969-5.738281c4.363281-.625 7.398437-4.664062 6.785156-9.03125zm0 0"/><path d="m112 184c.382812 0 .765625-.027344 1.144531-.078125l52-7.441406 14.054688 14.046875c3.214843-4.296875 7.03125-8.113282 11.328125-11.328125l-14.039063-14.039063 7.433594-52c.625-4.375-2.410156-8.429687-6.785156-9.054687-4.375-.628907-8.429688 2.410156-9.058594 6.78125l-5.734375 40.167969-12.6875-12.6875c-3.140625-3.03125-8.128906-2.988282-11.214844.097656-3.085937 3.085937-3.128906 8.074218-.097656 11.214844l12.6875 12.6875-40.167969 5.738281c-4.089843.660156-6.996093 4.335937-6.699219 8.464843.292969 4.132813 3.695313 7.355469 7.835938 7.429688zm0 0"/><path d="m268.800781 190.527344 14.046875-14.046875 52 7.441406c4.375.625 8.429688-2.410156 9.054688-6.785156.628906-4.375-2.410156-8.429688-6.78125-9.058594l-40.167969-5.734375 12.6875-12.6875c3.03125-3.140625 2.988281-8.128906-.097656-11.214844-3.085938-3.085937-8.074219-3.128906-11.214844-.097656l-12.6875 12.6875-5.738281-40.167969c-.625-4.375-4.679688-7.410156-9.054688-6.785156-4.375.628906-7.410156 4.683594-6.785156 9.058594l7.433594 52-14.023438 14.0625c4.296875 3.214843 8.113282 7.03125 11.328125 11.328125zm0 0"/><path d="m448 224c0-4.417969-3.582031-8-8-8h-28.6875l18.34375-18.34375c3.03125-3.140625 2.988281-8.128906-.097656-11.214844-3.085938-3.085937-8.074219-3.128906-11.214844-.097656l-29.65625 29.65625h-109.328125c.855469 5.300781.855469 10.699219 0 16h109.328125l29.65625 29.65625c3.140625 3.03125 8.128906 2.988281 11.214844-.097656 3.085937-3.085938 3.128906-8.074219.097656-11.214844l-18.34375-18.34375h28.6875c4.417969 0 8-3.582031 8-8zm0 0"/><path d="m264 224c0 22.089844-17.910156 40-40 40s-40-17.910156-40-40 17.910156-40 40-40 40 17.910156 40 40zm0 0"/></svg>