<svg height="464pt" viewBox="0 0 464 464" width="464pt" xmlns="http://www.w3.org/2000/svg"><path d="m456 152h-16c-4.417969 0-8 3.582031-8 8s3.582031 8 8 8h16c4.417969 0 8-3.582031 8-8s-3.582031-8-8-8zm0 0"/><path d="m280 8v16c0 4.417969 3.582031 8 8 8s8-3.582031 8-8v-16c0-4.417969-3.582031-8-8-8s-8 3.582031-8 8zm0 0"/><path d="m405.65625 69.65625 16-16c2.078125-2.007812 2.914062-4.984375 2.179688-7.78125-.730469-2.796875-2.914063-4.980469-5.710938-5.710938-2.796875-.734374-5.773438.101563-7.78125 2.179688l-16 16c-2.078125 2.007812-2.914062 4.984375-2.179688 7.78125.730469 2.796875 2.914063 4.980469 5.710938 5.710938 2.796875.734374 5.773438-.101563 7.78125-2.179688zm0 0"/><path d="m223.753906 107.425781c2.957032 2.820313 5.738282 5.824219 8.324219 8.988281.976563 1.160157 1.9375 2.328126 2.851563 3.539063.71875.941406 1.40625 1.910156 2.09375 2.886719.984374 1.390625 1.921874 2.816406 2.832031 4.265625.542969.871093 1.113281 1.734375 1.601562 2.621093 1.246094 2.136719 2.398438 4.320313 3.519531 6.5625.101563.207032.230469.398438.328126.605469 5.957031-1.988281 12.136718-3.25 18.398437-3.75 2.097656-.171875 4.203125-.257812 6.320313-.257812 33.699218-.144531 63.644531 21.476562 74.105468 53.511719 3.617188-.421876 7.257813-.632813 10.902344-.628907 3.292969 0 6.582031.175781 9.855469.519531.3125 0 .617187.101563.921875.144532 2.992187.335937 5.945312.796875 8.847656 1.414062.28125.0625.558594.152344.847656.214844 2.921875.648438 5.792969 1.417969 8.609375 2.328125.382813.128906.757813.289063 1.152344.417969 2.664063.902344 5.285156 1.914062 7.855469 3.039062.175781.082032.367187.136719.542968.214844 4.195313-10.867188 6.34375-22.414062 6.335938-34.0625.019531-42.445312-27.847656-79.859375-68.523438-91.996094-40.675781-12.132812-84.488281 3.898438-107.722656 39.421875zm0 0"/><path d="m393.3125 211.824219c-1.671875-.945313-3.390625-1.800781-5.128906-2.617188l-1.136719-.535156c-1.808594-.800781-3.640625-1.535156-5.503906-2.199219-.328125-.121094-.648438-.242187-.984375-.351562-1.894532-.65625-3.824219-1.234375-5.765625-1.738282l-1-.253906c-1.914063-.464844-3.847657-.863281-5.785157-1.191406-.464843-.082031-.9375-.144531-1.398437-.210938-1.824219-.28125-3.652344-.496093-5.480469-.648437-.761718-.054687-1.535156-.070313-2.296875-.109375-1.601562-.082031-3.199219-.152344-4.800781-.136719-1.070312 0-2.144531.097657-3.199219.152344-1.296875.070313-2.59375.105469-3.878906.230469-2.402344.25-4.800781.59375-7.199219 1.058594-4.3125.847656-8.503906-1.9375-9.386718-6.242188-6.210938-28.273438-31.355469-48.347656-60.304688-48.144531-8.882812.007812-17.664062 1.917969-25.75 5.601562-2.011719.90625-4.308594.941407-6.347656.097657-2.039063-.84375-3.636719-2.492188-4.421875-4.554688-1.171875-3.023438-2.523438-5.976562-4.046875-8.839844-.273438-.527344-.535156-1.0625-.800782-1.597656-1.484374-2.683594-3.121093-5.285156-4.894531-7.785156-.417969-.585938-.847656-1.160156-1.28125-1.738282-1.796875-2.421874-3.722656-4.742187-5.765625-6.957031-.507812-.546875-1.058594-1.042969-1.601562-1.601562-1.671875-1.703125-3.425782-3.320313-5.242188-4.878907-15.519531-13.292968-35.277344-20.605468-55.710937-20.632812-46.1875-.5-84.066407 36.476562-84.6875 82.664062.023437 9.417969 1.699219 18.761719 4.953125 27.601563.878906 2.414063.546875 5.105469-.898438 7.230469-1.445312 2.128906-3.820312 3.429687-6.390625 3.503906-37.019531.449219-66.878906 30.425781-67.175781 67.449219 0 36.613281 32.96875 67.550781 72 67.550781h283.03125c41.976562.457031 76.402344-33.140625 76.96875-75.113281-.160156-27.09375-14.960938-51.980469-38.6875-65.0625zm-129.3125 84.175781h-20.6875l18.34375 18.34375c2.078125 2.007812 2.914062 4.984375 2.179688 7.78125-.730469 2.796875-2.914063 4.980469-5.710938 5.710938-2.796875.734374-5.773438-.101563-7.78125-2.179688l-18.34375-18.34375v20.6875c0 4.417969-3.582031 8-8 8s-8-3.582031-8-8v-20.6875l-18.34375 18.34375c-3.140625 3.03125-8.128906 2.988281-11.214844-.097656-3.085937-3.085938-3.128906-8.074219-.097656-11.214844l18.34375-18.34375h-20.6875c-4.417969 0-8-3.582031-8-8s3.582031-8 8-8h20.6875l-18.34375-18.34375c-3.03125-3.140625-2.988281-8.128906.097656-11.214844 3.085938-3.085937 8.074219-3.128906 11.214844-.097656l18.34375 18.34375v-20.6875c0-4.417969 3.582031-8 8-8s8 3.582031 8 8v20.6875l18.34375-18.34375c3.140625-3.03125 8.128906-2.988281 11.214844.097656 3.085937 3.085938 3.128906 8.074219.097656 11.214844l-18.34375 18.34375h20.6875c4.417969 0 8 3.582031 8 8s-3.582031 8-8 8zm0 0"/><path d="m96 416c0 4.417969 3.582031 8 8 8h20.6875l-18.34375 18.34375c-2.078125 2.007812-2.914062 4.984375-2.179688 7.78125.730469 2.796875 2.914063 4.980469 5.710938 5.710938 2.796875.734374 5.773438-.101563 7.78125-2.179688l18.34375-18.34375v20.6875c0 4.417969 3.582031 8 8 8s8-3.582031 8-8v-20.6875l18.34375 18.34375c3.140625 3.03125 8.128906 2.988281 11.214844-.097656 3.085937-3.085938 3.128906-8.074219.097656-11.214844l-18.34375-18.34375h20.6875c4.417969 0 8-3.582031 8-8s-3.582031-8-8-8h-20.6875l18.34375-18.34375c3.03125-3.140625 2.988281-8.128906-.097656-11.214844-3.085938-3.085937-8.074219-3.128906-11.214844-.097656l-18.34375 18.34375v-20.6875c0-4.417969-3.582031-8-8-8s-8 3.582031-8 8v20.6875l-18.34375-18.34375c-3.140625-3.03125-8.128906-2.988281-11.214844.097656-3.085937 3.085938-3.128906 8.074219-.097656 11.214844l18.34375 18.34375h-20.6875c-4.417969 0-8 3.582031-8 8zm0 0"/><path d="m256 416c0 4.417969 3.582031 8 8 8h20.6875l-18.34375 18.34375c-2.078125 2.007812-2.914062 4.984375-2.179688 7.78125.730469 2.796875 2.914063 4.980469 5.710938 5.710938 2.796875.734374 5.773438-.101563 7.78125-2.179688l18.34375-18.34375v20.6875c0 4.417969 3.582031 8 8 8s8-3.582031 8-8v-20.6875l18.34375 18.34375c3.140625 3.03125 8.128906 2.988281 11.214844-.097656 3.085937-3.085938 3.128906-8.074219.097656-11.214844l-18.34375-18.34375h20.6875c4.417969 0 8-3.582031 8-8s-3.582031-8-8-8h-20.6875l18.34375-18.34375c3.03125-3.140625 2.988281-8.128906-.097656-11.214844-3.085938-3.085937-8.074219-3.128906-11.214844-.097656l-18.34375 18.34375v-20.6875c0-4.417969-3.582031-8-8-8s-8 3.582031-8 8v20.6875l-18.34375-18.34375c-3.140625-3.03125-8.128906-2.988281-11.214844.097656-3.085937 3.085938-3.128906 8.074219-.097656 11.214844l18.34375 18.34375h-20.6875c-4.417969 0-8 3.582031-8 8zm0 0"/></svg>