<svg height="439pt" viewBox="0 -3 439.864 439" width="439pt" xmlns="http://www.w3.org/2000/svg"><path d="m418.289062 151.046875c-45.066406-.980469-80.84375-38.234375-80-83.304687.207032-26.125 12.113282-50.785157 32.4375-67.199219-2.488281-.109375-4.933593-.109375-7.292968-.109375-50.417969 0-91.433594 43.0625-91.433594 96 0 1.597656.046875 3.199218.152344 4.910156.800781 0 1.601562.113281 2.34375.160156.945312.046875 1.886718.097656 2.824218.183594 1.121094.105469 2.230469.257812 3.335938.410156.945312.125 1.894531.246094 2.832031.40625 1.078125.183594 2.144531.425782 3.199219.65625.9375.199219 1.871094.390625 2.792969.625 1.046875.269532 2.070312.582032 3.105469.894532 1.03125.3125 1.839843.535156 2.742187.839843.902344.304688 1.984375.738281 2.96875 1.113281s1.808594.679688 2.6875 1.0625c.878906.382813 1.886719.863282 2.832031 1.3125.945313.449219 1.75.800782 2.609375 1.265626.855469.460937 1.789063 1.007812 2.6875 1.519531.894531.511719 1.6875.949219 2.511719 1.464843.824219.511719 1.703125 1.132813 2.550781 1.710938.847657.574219 1.601563 1.0625 2.398438 1.597656.800781.539063 1.601562 1.273438 2.402343 1.914063.800782.640625 1.503907 1.175781 2.230469 1.800781.730469.621094 1.527344 1.398438 2.289063 2.109375.761718.714844 1.398437 1.273437 2.070312 1.945313.671875.671874 1.433594 1.535156 2.144532 2.3125.714843.777343 1.28125 1.351562 1.882812 2.054687.597656.703125 1.351562 1.6875 2.015625 2.542969.558594.714844 1.132813 1.410156 1.671875 2.144531.664062.914063 1.261719 1.867187 1.886719 2.808594.472656.722656.976562 1.417969 1.425781 2.152343.628906 1.039063 1.199219 2.113282 1.78125 3.199219.378906.6875.800781 1.351563 1.136719 2.058594.617187 1.207031 1.152343 2.460937 1.703125 3.71875.265625.59375.5625 1.167969.800781 1.769531.761719 1.871094 1.457031 3.78125 2.074219 5.726563 3.617187-.421875 7.257812-.632813 10.902344-.632813 3.007812 0 5.984374.167969 8.945312.441406.917969.085938 1.816406.238282 2.726562.351563 2.039063.253906 4.070313.535156 6.078126.910156.992187.195313 1.960937.433594 2.9375.648438 1.921874.425781 3.816406.898437 5.6875 1.441406.9375.273437 1.855468.558594 2.777343.863281 1.894531.609375 3.757813 1.28125 5.597657 2.015625.800781.328125 1.671874.671875 2.503906 1.023438 1.890625.800781 3.738281 1.699219 5.601562 2.632812.738282.375 1.480469.746094 2.199219 1.136719 1.855469 1.015625 3.664063 2.113281 5.457031 3.246094.648438.417968 1.3125.800781 1.953125 1.234375 1.800781 1.214843 3.542969 2.519531 5.261719 3.863281.5625.441406 1.136719.800781 1.679688 1.28125.21875.175781.449218.328125.664062.503906 10.046875-7.355468 18.484375-16.683594 24.800781-27.410156-7.042969 1.839844-14.296875 2.738281-21.574219 2.671875zm0 0"/><path d="m393.3125 180.257812c-1.671875-.945312-3.390625-1.800781-5.128906-2.617187l-1.136719-.535156c-1.808594-.800781-3.640625-1.535157-5.503906-2.203125-.328125-.117188-.648438-.238282-.984375-.351563-1.894532-.65625-3.824219-1.230469-5.765625-1.734375l-1-.257812c-1.914063-.460938-3.847657-.863282-5.785157-1.191406-.464843-.078126-.9375-.144532-1.398437-.207032-1.824219-.28125-3.652344-.5-5.480469-.648437-.761718-.054688-1.535156-.070313-2.296875-.113281-1.601562-.078126-3.199219-.152344-4.800781-.132813-1.070312 0-2.144531.09375-3.199219.148437-1.296875.074219-2.59375.105469-3.878906.234376-2.402344.246093-4.800781.589843-7.199219 1.054687-4.3125.851563-8.503906-1.933594-9.386718-6.238281-6.210938-28.277344-31.355469-48.351563-60.304688-48.144532-8.882812.007813-17.664062 1.917969-25.75 5.601563-2.011719.90625-4.308594.941406-6.347656.097656-2.039063-.84375-3.636719-2.492187-4.421875-4.554687-1.171875-3.023438-2.523438-5.976563-4.046875-8.839844-.273438-.527344-.535156-1.066406-.800782-1.601562-1.484374-2.683594-3.121093-5.28125-4.894531-7.785157-.417969-.582031-.847656-1.160156-1.28125-1.734375-1.796875-2.421875-3.722656-4.746094-5.765625-6.960937-.507812-.542969-1.058594-1.039063-1.601562-1.597657-1.671875-1.707031-3.425782-3.320312-5.242188-4.882812-15.519531-13.289062-35.277344-20.605469-55.710937-20.628906-46.1875-.5-84.066407 36.476562-84.6875 82.664062.023437 9.417969 1.699219 18.757813 4.953125 27.597656.878906 2.414063.546875 5.105469-.898438 7.234376-1.445312 2.125-3.820312 3.429687-6.390625 3.503906-37.019531.445312-66.878906 30.425781-67.175781 67.445312 0 36.617188 32.96875 67.554688 72 67.554688h283.03125c41.976562.457031 76.402344-33.140625 76.96875-75.113282-.160156-27.09375-14.960938-51.984374-38.6875-65.0625zm-129.3125 84.175782h-20.6875l18.34375 18.34375c2.078125 2.007812 2.914062 4.980468 2.179688 7.777344-.730469 2.796874-2.914063 4.984374-5.710938 5.714843s-5.773438-.101562-7.78125-2.179687l-18.34375-18.347656v20.691406c0 4.417968-3.582031 8-8 8s-8-3.582032-8-8v-20.691406l-18.34375 18.347656c-3.140625 3.03125-8.128906 2.988281-11.214844-.097656-3.085937-3.085938-3.128906-8.078126-.097656-11.214844l18.34375-18.34375h-20.6875c-4.417969 0-8-3.582032-8-8 0-4.417969 3.582031-8 8-8h20.6875l-18.34375-18.34375c-3.03125-3.140625-2.988281-8.128906.097656-11.214844 3.085938-3.085938 8.074219-3.128906 11.214844-.097656l18.34375 18.34375v-20.6875c0-4.417969 3.582031-8 8-8s8 3.582031 8 8v20.6875l18.34375-18.34375c3.140625-3.03125 8.128906-2.988282 11.214844.097656 3.085937 3.085938 3.128906 8.074219.097656 11.214844l-18.34375 18.34375h20.6875c4.417969 0 8 3.582031 8 8 0 4.417968-3.582031 8-8 8zm0 0"/><path d="m96 384.433594c0 4.417968 3.582031 8 8 8h20.6875l-18.34375 18.34375c-2.078125 2.007812-2.914062 4.980468-2.179688 7.777344.730469 2.796874 2.914063 4.984374 5.710938 5.714843s5.773438-.101562 7.78125-2.179687l18.34375-18.347656v20.691406c0 4.417968 3.582031 8 8 8s8-3.582032 8-8v-20.691406l18.34375 18.347656c3.140625 3.03125 8.128906 2.988281 11.214844-.097656 3.085937-3.085938 3.128906-8.078126.097656-11.214844l-18.34375-18.34375h20.6875c4.417969 0 8-3.582032 8-8 0-4.417969-3.582031-8-8-8h-20.6875l18.34375-18.34375c3.03125-3.140625 2.988281-8.128906-.097656-11.214844-3.085938-3.085938-8.074219-3.128906-11.214844-.097656l-18.34375 18.34375v-20.6875c0-4.417969-3.582031-8-8-8s-8 3.582031-8 8v20.6875l-18.34375-18.34375c-3.140625-3.03125-8.128906-2.988282-11.214844.097656-3.085937 3.085938-3.128906 8.074219-.097656 11.214844l18.34375 18.34375h-20.6875c-4.417969 0-8 3.582031-8 8zm0 0"/><path d="m256 384.433594c0 4.417968 3.582031 8 8 8h20.6875l-18.34375 18.34375c-2.078125 2.007812-2.914062 4.980468-2.179688 7.777344.730469 2.796874 2.914063 4.984374 5.710938 5.714843s5.773438-.101562 7.78125-2.179687l18.34375-18.347656v20.691406c0 4.417968 3.582031 8 8 8s8-3.582032 8-8v-20.691406l18.34375 18.347656c3.140625 3.03125 8.128906 2.988281 11.214844-.097656 3.085937-3.085938 3.128906-8.078126.097656-11.214844l-18.34375-18.34375h20.6875c4.417969 0 8-3.582032 8-8 0-4.417969-3.582031-8-8-8h-20.6875l18.34375-18.34375c3.03125-3.140625 2.988281-8.128906-.097656-11.214844-3.085938-3.085938-8.074219-3.128906-11.214844-.097656l-18.34375 18.34375v-20.6875c0-4.417969-3.582031-8-8-8s-8 3.582031-8 8v20.6875l-18.34375-18.34375c-3.140625-3.03125-8.128906-2.988282-11.214844.097656-3.085937 3.085938-3.128906 8.074219-.097656 11.214844l18.34375 18.34375h-20.6875c-4.417969 0-8 3.582031-8 8zm0 0"/></svg>