<svg height="464pt" viewBox="0 -4 464 464" width="464pt" xmlns="http://www.w3.org/2000/svg"><path d="m305.167969 64h-49.167969c-2.464844 0-4.789062-1.136719-6.308594-3.078125-1.515625-1.941406-2.050781-4.476563-1.453125-6.867187l11.515625-46.054688 2-8h-48l-2.675781 8-24 72h60.921875c2.402344 0 4.679688 1.078125 6.199219 2.941406 1.519531 1.859375 2.121093 4.304688 1.640625 6.660156l-14.398438 71.453126zm0 0"/><path d="m416 8h-139.753906l-10 40h53.753906c2.941406 0 5.644531 1.613281 7.042969 4.199219 1.394531 2.589843 1.257812 5.734375-.355469 8.191406l-94.582031 144c-1.480469 2.253906-3.996094 3.609375-6.691407 3.609375-1.042968.003906-2.074218-.203125-3.039062-.601562-3.546875-1.457032-5.558594-5.222657-4.800781-8.984376l20.648437-102.414062h-62.222656c-2.570312 0-4.984375-1.238281-6.484375-3.324219-1.503906-2.085937-1.910156-4.765625-1.101563-7.203125l25.824219-77.472656h-146.238281c-26.507812 0-48 21.492188-48 48s21.492188 48 48 48h16c-17.671875 0-32 14.328125-32 32s14.328125 32 32 32h40c-17.671875 0-32 14.328125-32 32s14.328125 32 32 32h32c-17.671875 0-32 14.328125-32 32s14.328125 32 32 32h48c-8.835938 0-16 7.164062-16 16s7.164062 16 16 16h56c-8.835938 0-16 7.164062-16 16s7.164062 16 16 16h12c-8.835938 0-16 7.164062-16 16s7.164062 16 16 16h-24c-8.835938 0-16 7.164062-16 16s7.164062 16 16 16h-36c-8.835938 0-16 7.164062-16 16s7.164062 16 16 16h64c8.835938 0 16-7.164062 16-16s-7.164062-16-16-16h68c8.835938 0 16-7.164062 16-16s-7.164062-16-16-16h56c8.835938 0 16-7.164062 16-16s-7.164062-16-16-16h36c8.835938 0 16-7.164062 16-16s-7.164062-16-16-16h24c8.835938 0 16-7.164062 16-16s-7.164062-16-16-16h-32c17.671875 0 32-14.328125 32-32s-14.328125-32-32-32h-32c17.671875 0 32-14.328125 32-32s-14.328125-32-32-32h24c17.671875 0 32-14.328125 32-32s-14.328125-32-32-32h16c26.507812 0 48-21.492188 48-48s-21.492188-48-48-48zm0 0"/></svg>