<svg height="439pt" viewBox="0 -27 439.91732 439" width="439pt" xmlns="http://www.w3.org/2000/svg"><path d="m418.339844 151.074219c-45.0625-.980469-80.84375-38.234375-80-83.304688.210937-26.125 12.113281-50.785156 32.441406-67.199219-2.488281-.113281-4.9375-.113281-7.296875-.113281-50.414063 0-91.429687 43.066407-91.429687 96 0 1.601563.046874 3.203125.152343 4.914063.796875 0 1.597657.113281 2.34375.160156.941407.046875 1.886719.09375 2.824219.183594 1.117188.105468 2.230469.253906 3.335938.40625.941406.128906 1.894531.25 2.832031.410156 1.078125.183594 2.140625.421875 3.199219.65625.933593.199219 1.871093.390625 2.792968.625 1.046875.269531 2.070313.582031 3.101563.894531s1.839843.535157 2.746093.839844c.902344.304687 1.984376.734375 2.964844 1.113281.984375.375 1.808594.679688 2.691406 1.0625.878907.382813 1.886719.863282 2.832032 1.3125.941406.449219 1.75.800782 2.605468 1.261719.855469.464844 1.792969 1.011719 2.6875 1.523437.898438.511719 1.6875.949219 2.511719 1.460938s1.707031 1.136719 2.554688 1.714844c.847656.574218 1.597656 1.0625 2.398437 1.597656.800782.535156 1.601563 1.273438 2.402344 1.914062.796875.640626 1.503906 1.175782 2.230469 1.800782.726562.621094 1.527343 1.398437 2.289062 2.109375.757813.710937 1.398438 1.273437 2.070313 1.945312s1.433594 1.535157 2.144531 2.3125c.710937.773438 1.28125 1.351563 1.878906 2.054688.601563.703125 1.351563 1.6875 2.015625 2.542969.5625.714843 1.136719 1.410156 1.671875 2.144531.664063.914062 1.265625 1.863281 1.890625 2.808593.46875.71875.976563 1.417969 1.421875 2.152344.632813 1.039063 1.199219 2.113282 1.785157 3.199219.375.6875.800781 1.351563 1.136718 2.054687.613282 1.210938 1.152344 2.464844 1.703125 3.722657.265625.589843.558594 1.167969.800781 1.765625.757813 1.875 1.453126 3.785156 2.070313 5.730468 3.621094-.421874 7.261719-.632812 10.90625-.632812 3.007813 0 5.984375.167969 8.941406.441406.921875.085938 1.816407.238282 2.730469.351563 2.039062.253906 4.070312.535156 6.078125.910156.992187.191406 1.960937.433594 2.9375.648437 1.917969.425782 3.816406.894532 5.6875 1.441407.933594.269531 1.855469.558593 2.777344.863281 1.890625.609375 3.757812 1.28125 5.597656 2.015625.800781.328125 1.671875.671875 2.503906 1.023437 1.886719.800782 3.738281 1.695313 5.601563 2.632813.734375.375 1.480468.742187 2.199218 1.136719 1.855469 1.015625 3.664063 2.109375 5.457032 3.246094.648437.417968 1.3125.800781 1.949218 1.234374 1.800782 1.214844 3.546876 2.519532 5.265626 3.863282.558593.4375 1.136718.800781 1.679687 1.28125.214844.175781.449219.324218.664063.503906 10.042968-7.355469 18.480468-16.683594 24.800781-27.410156-7.042969 1.839844-14.296875 2.738281-21.578125 2.671875zm0 0"/><path d="m208.054688 384.457031 65.167968-104h-49.167968c-2.464844 0-4.789063-1.132812-6.304688-3.074219-1.515625-1.941406-2.050781-4.472656-1.457031-6.859374l13.511719-54.066407h-48l-26.648438 80h60.898438c2.402343 0 4.675781 1.082031 6.195312 2.941407 1.519531 1.859374 2.125 4.304687 1.644531 6.660156l-2.90625 14.398437zm0 0"/><path d="m67.253906 185.457031c-24.300781.09375-46.675781 13.242188-58.589844 34.421875-11.910156 21.183594-11.515624 47.132813 1.027344 67.945313 12.546875 20.8125 35.308594 33.277343 59.601563 32.632812h135.375l1.601562-8h-62.214843c-2.570313 0-4.984376-1.238281-6.488282-3.324219-1.5-2.082031-1.910156-4.765624-1.097656-7.203124l32-96c1.089844-3.265626 4.144531-5.46875 7.585938-5.472657h64c2.460937.003907 4.785156 1.136719 6.300781 3.078125s2.054687 4.46875 1.457031 6.859375l-13.511719 54.0625h53.753907c2.9375 0 5.644531 1.613281 7.039062 4.203125 1.398438 2.585938 1.261719 5.734375-.351562 8.191406l-28.648438 43.605469h88.992188c41.972656.460938 76.402343-33.136719 76.96875-75.109375-.0625-20.785156-8.859376-40.589844-24.242188-54.570312-.253906-.230469-.535156-.429688-.800781-.664063-1.445313-1.292969-2.910157-2.566406-4.445313-3.742187-.65625-.503906-1.335937-.984375-2.007812-1.472656-1.839844-1.3125-3.722656-2.550782-5.664063-3.695313-.496093-.296875-.984375-.601563-1.488281-.886719-7.8125-4.371094-16.308594-7.375-25.128906-8.890625l-1.207032-.175781c-2.402343-.382812-4.882812-.632812-7.335937-.800781-.738281-.046875-1.480469-.085938-2.226563-.109375-2.246093-.074219-4.503906 0-6.757812.085937-.738281.039063-1.480469.050781-2.214844.113281-2.933594.222657-5.851562.613282-8.738281 1.167969-4.308594.847657-8.5-1.9375-9.382813-6.242187-6.210937-28.273438-31.355468-48.347656-60.304687-48.140625-1.289063 0-2.550781.125-3.824219.207031l-.800781.054688h-.078125c-7.28125.527343-14.410156 2.328124-21.066406 5.320312-2.011719.90625-4.308594.941406-6.34375.097656-2.039063-.84375-3.640625-2.488281-4.421875-4.554687-12.773438-32.632813-44.277344-54.074219-79.320313-53.992188-46.1875-.496093-84.070312 36.476563-84.6875 82.664063.019532 9.421875 1.695313 18.761718 4.949219 27.601562.882813 2.414063.546875 5.105469-.894531 7.234375-1.445313 2.125-3.824219 3.429688-6.390625 3.5zm0 0"/></svg>