<svg height="464pt" viewBox="0 -56 464.048 464" width="464pt" xmlns="http://www.w3.org/2000/svg"><path d="m435.199219 124.585938c-5.597657-8-9.046875-12.5625-15.671875-12.5625s-10.09375 4.535156-15.679688 12.570312c-6.03125 8.652344-13.519531 19.429688-28.824218 19.429688-15.304688 0-22.785157-10.777344-28.800782-19.4375-5.597656-8-9.054687-12.5625-15.664062-12.5625-6.605469 0-10.0625 4.535156-15.628906 12.5625-6.007813 8.652343-13.488282 19.4375-28.800782 19.4375s-22.785156-10.785157-28.800781-19.4375c-5.601563-8-9.046875-12.5625-15.648437-12.5625-6.601563 0-10.070313 4.535156-15.640626 12.5625-6.007812 8.652343-13.496093 19.4375-28.800781 19.4375-15.300781 0-22.773437-10.785157-28.796875-19.4375-5.601562-8-9.042968-12.5625-15.648437-12.5625-6.609375 0-10.074219 4.535156-15.648438 12.5625-4.824219 9.183593-13.175781 16.011718-23.136719 18.910156l.167969.535156c3.199219 9.824219 6.296875 19.722656 9.410157 29.601562 20.734374 65.78125 42 133.246094 73.324218 162.863282 1.890625 1.773437 3.875 3.441406 5.945313 5 1.28125.976562 2.578125 1.878906 3.886719 2.726562 4.792968 3.175782 10.109374 5.472656 15.707031 6.777344 3.136719.691406 6.339843 1.035156 9.550781 1.023438h232v-208c-15.304688 0-22.800781-10.777344-28.800781-19.4375zm-69.542969 89.09375c-3.125 3.125-8.1875 3.125-11.3125 0l-18.34375-18.34375v44.6875c0 4.417968-3.582031 8-8 8s-8-3.582032-8-8v-44.6875l-18.34375 18.34375c-3.140625 3.03125-8.128906 2.988281-11.214844-.097657-3.085937-3.085937-3.128906-8.074219-.097656-11.214843l32-32c.746094-.746094 1.632812-1.335938 2.609375-1.734376 1.957031-.808593 4.152344-.808593 6.109375 0 .976562.398438 1.863281.988282 2.609375 1.734376l32 32c3.117187 3.128906 3.113281 8.191406-.015625 11.3125zm0 0"/><path d="m435.199219 76.585938c-5.597657-8-9.046875-12.5625-15.671875-12.5625s-10.09375 4.535156-15.679688 12.570312c-6.03125 8.652344-13.519531 19.429688-28.824218 19.429688-15.304688 0-22.785157-10.777344-28.800782-19.4375-5.597656-8-9.054687-12.5625-15.664062-12.5625-6.605469 0-10.0625 4.535156-15.628906 12.5625-6.007813 8.652343-13.488282 19.4375-28.800782 19.4375s-22.785156-10.785157-28.800781-19.4375c-5.601563-8-9.046875-12.5625-15.648437-12.5625-6.601563 0-10.070313 4.535156-15.640626 12.5625-6.007812 8.652343-13.496093 19.4375-28.800781 19.4375-15.300781 0-22.773437-10.785157-28.796875-19.4375-5.601562-8-9.042968-12.5625-15.648437-12.5625-6.609375 0-10.074219 4.535156-15.648438 12.5625-5.945312 8.660156-13.441406 19.4375-28.730469 19.4375-3.988281.058593-7.941406-.761719-11.582031-2.398438.246094.65625.480469 1.351562.726563 2.007812 3.921875 10.472657 7.699218 21.304688 11.386718 32.335938 6.222657-.265625 9.703126-4.679688 15.109376-12.464844 6.007812-8.65625 13.488281-19.441406 28.800781-19.441406s22.777343 10.777344 28.800781 19.441406c5.601562 8 9.046875 12.558594 15.648438 12.558594 6.597656 0 10.078124-4.535156 15.648437-12.558594 6.007813-8.664062 13.496094-19.441406 28.800781-19.441406 15.300782 0 22.773438 10.777344 28.796875 19.441406 5.601563 8 9.042969 12.558594 15.65625 12.558594 6.617188 0 10.066407-4.535156 15.640625-12.558594 6.007813-8.664062 13.480469-19.441406 28.800782-19.441406 15.320312 0 22.792968 10.785156 28.800781 19.441406 5.597656 8 9.046875 12.558594 15.65625 12.558594 6.605469 0 10.09375-4.535156 15.671875-12.558594 6.023437-8.664062 13.511718-19.441406 28.796875-19.441406 15.289062 0 22.800781 10.777344 28.800781 19.441406 5.601562 8 9.058594 12.558594 15.671875 12.558594v-32.039062c-15.351563 0-22.847656-10.777344-28.847656-19.4375zm0 0"/><path d="m108.359375 178.425781-.605469-1.914062c-3.683594-11.703125-7.394531-23.359375-11.144531-34.855469-4.394531-13.425781-8.882813-26.664062-13.601563-39.28125l-.0625-.167969c-1.71875-4.621093-3.460937-9.15625-5.226562-13.597656l-.445312-1.097656c-1.671876-4.179688-3.371094-8.273438-5.105469-12.273438-.238281-.550781-.480469-1.085937-.71875-1.597656-1.6875-3.855469-3.402344-7.617187-5.144531-11.25-17.710938-36.949219-38.710938-62.3671875-66.304688-62.3671875v352.0000005h190.761719c-37.363281-31.09375-60.203125-103.199219-82.402344-173.597657zm0 0"/></svg>