<svg height="464pt" viewBox="0 -56 464.032 464" width="464pt" xmlns="http://www.w3.org/2000/svg"><path d="m336 24.015625c-4.417969 0-8 3.582031-8 8v44.6875l-18.34375-18.34375c-3.140625-3.03125-8.128906-2.988281-11.214844.097656-3.085937 3.085938-3.128906 8.074219-.097656 11.214844l32 32c1.5 1.503906 3.539062 2.351563 5.664062 2.351563s4.164063-.847657 5.664063-2.351563l32-32c3.03125-3.140625 2.988281-8.128906-.097656-11.214844-3.085938-3.085937-8.074219-3.128906-11.214844-.097656l-18.359375 18.34375v-44.6875c0-4.417969-3.582031-8-8-8zm0 0"/><path d="m435.199219 172.574219c-5.597657-8-9.046875-12.558594-15.671875-12.558594s-10.09375 4.535156-15.679688 12.570313c-6.03125 8.652343-13.519531 19.429687-28.824218 19.429687-15.304688 0-22.785157-10.777344-28.800782-19.441406-5.597656-8-9.054687-12.558594-15.664062-12.558594-6.605469 0-10.0625 4.535156-15.628906 12.558594-6.007813 8.65625-13.488282 19.441406-28.800782 19.441406s-22.785156-10.785156-28.800781-19.441406c-5.601563-8-9.046875-12.558594-15.648437-12.558594-6.601563 0-10.070313 4.535156-15.640626 12.558594-6.007812 8.65625-13.496093 19.441406-28.800781 19.441406-15.300781 0-22.773437-10.785156-28.796875-19.441406-5.601562-8-9.042968-12.558594-15.648437-12.558594-6.609375 0-10.097657 4.527344-15.679688 12.542969-2.851562 4.433594-6.214843 8.507812-10.023437 12.144531 1.722656 5.441406 3.449218 10.863281 5.183594 16.273437 5.273437-5.769531 12.75-9.027343 20.566406-8.960937 15.296875 0 22.777344 10.777344 28.800781 19.441406 5.597656 8 9.046875 12.558594 15.648437 12.558594 6.597657 0 10.078126-4.535156 15.648438-12.558594 6.007812-8.664062 13.496094-19.441406 28.796875-19.441406 15.304687 0 22.777344 10.777344 28.800781 19.441406 5.601563 8 9.039063 12.558594 15.65625 12.558594 6.617188 0 10.066406-4.535156 15.640625-12.558594 6.007813-8.664062 13.480469-19.441406 28.800781-19.441406 15.320313 0 22.792969 10.785156 28.800782 19.441406 5.597656 8 9.046875 12.558594 15.65625 12.558594 6.605468 0 10.09375-4.535156 15.671875-12.558594 6.023437-8.664062 13.511719-19.441406 28.796875-19.441406 15.289062 0 22.800781 10.777344 28.800781 19.441406 5.601563 8 9.054687 12.558594 15.671875 12.558594v-32c-15.335938 0-22.832031-10.777344-28.832031-19.441406zm0 0"/><path d="m435.199219 220.574219c-5.597657-8-9.046875-12.558594-15.671875-12.558594s-10.09375 4.535156-15.679688 12.570313c-6.03125 8.652343-13.519531 19.429687-28.824218 19.429687-15.304688 0-22.785157-10.777344-28.800782-19.441406-5.597656-8-9.054687-12.558594-15.664062-12.558594-6.605469 0-10.0625 4.535156-15.628906 12.558594-6.007813 8.65625-13.488282 19.441406-28.800782 19.441406s-22.785156-10.785156-28.800781-19.441406c-5.601563-8-9.046875-12.558594-15.648437-12.558594-6.601563 0-10.070313 4.535156-15.640626 12.558594-6.007812 8.65625-13.496093 19.441406-28.800781 19.441406-15.300781 0-22.773437-10.785156-28.796875-19.441406-5.601562-8-9.042968-12.558594-15.648437-12.558594-6.175781 0-9.601563 4-14.601563 11.054687.199219.585938.394532 1.167969.585938 1.753907 1.328125 3.957031 2.660156 7.851562 4 11.6875l.863281 2.464843c1.503906 4.304688 3.015625 8.535157 4.527344 12.65625l.128906.328126c3.15625 8.585937 6.355469 16.722656 9.597656 24.414062.28125.664062.554688 1.328125.800781 1.976562 1.351563 3.199219 2.710938 6.257813 4.089844 9.273438.628906 1.390625 1.269532 2.75 1.910156 4.109375.640626 1.363281 1.359376 2.816406 2.039063 4.210937 2.578125 5.253907 5.21875 10.269532 7.945313 14.992188.265624.453125.527343.925781.800781 1.382812.671875 1.144532 1.359375 2.253907 2.046875 3.367188.542968.878906 1.082031 1.769531 1.601562 2.625.421875.65625.855469 1.296875 1.277344 1.945312.800781 1.199219 1.601562 2.398438 2.402344 3.550782l.582031.800781c7.539063 11.632813 18 21.085937 30.335937 27.40625l.449219.199219c1.695313.734375 3.4375 1.367187 5.207031 1.898437 1.359376.398438 2.730469.796875 4.113282 1.046875.71875.144532 1.441406.246094 2.160156.351563 2.101562.316406 4.21875.488281 6.34375.503906h232v-112c-15.304688 0-22.800781-10.777344-28.800781-19.441406zm0 0"/><path d="m184.863281 347.152344c-1.488281-1.449219-2.941406-2.96875-4.382812-4.542969-.753907-.800781-1.503907-1.601563-2.234375-2.472656-1.644532-1.914063-3.253906-3.921875-4.839844-5.992188-.453125-.59375-.925781-1.152343-1.382812-1.761719-2.011719-2.707031-3.96875-5.546874-5.878907-8.511718-.527343-.800782-1.03125-1.671875-1.550781-2.503906-1.386719-2.214844-2.761719-4.472657-4.105469-6.800782-.671875-1.167968-1.328125-2.398437-1.992187-3.558594-1.179688-2.132812-2.339844-4.304687-3.480469-6.511718-.65625-1.273438-1.3125-2.535156-1.953125-3.832032-1.183594-2.398437-2.34375-4.800781-3.488281-7.25-.542969-1.15625-1.085938-2.285156-1.597657-3.453124-1.601562-3.59375-3.242187-7.242188-4.800781-10.976563-.289062-.6875-.566406-1.398437-.855469-2.097656-1.296874-3.125-2.578124-6.285157-3.839843-9.503907-.585938-1.496093-1.160157-3.007812-1.738281-4.519531-.949219-2.496093-1.902344-5-2.839844-7.542969-.617188-1.648437-1.226563-3.308593-1.824219-4.984374-.894531-2.480469-1.78125-4.980469-2.664063-7.496094-.589843-1.679688-1.183593-3.351563-1.757812-5.039063-.964844-2.800781-1.921875-5.621093-2.871094-8.457031-.457031-1.359375-.921875-2.703125-1.378906-4.0625-4.511719-13.601562-8.886719-27.457031-13.238281-41.25-.582031-1.863281-1.175781-3.726562-1.761719-5.597656-27.6875-87.722656-56.269531-178.417969-108.40625-178.417969v352h190.398438c-1.023438-.800781-2.046876-1.65625-3.046876-2.558594-.863281-.746093-1.679687-1.519531-2.488281-2.304687zm0 0"/></svg>