<svg height="439pt" viewBox="0 -11 439.91732 439" width="439pt" xmlns="http://www.w3.org/2000/svg"><path d="m250.703125 304.457031c-10.890625-.304687-21.675781 2.199219-31.320313 7.265625-11.753906 6.023438-24.824218 9.023438-38.027343 8.734375h138.699219c-13.203126.289063-26.273438-2.710937-38.023438-8.734375-9.648438-5.066406-20.4375-7.570312-31.328125-7.265625zm0 0"/><path d="m67.253906 185.457031c-24.300781.09375-46.675781 13.242188-58.589844 34.421875-11.910156 21.183594-11.515624 47.132813 1.027344 67.945313 12.546875 20.8125 35.308594 33.277343 59.601563 32.632812h112.0625c-13.195313.289063-26.257813-2.714843-38.007813-8.734375-9.632812-5.066406-20.410156-7.566406-31.292968-7.265625-4.417969 0-8-3.582031-8-8s3.582031-8 8-8c13.195312-.285156 26.253906 2.714844 38 8.738281 9.636718 5.066407 20.417968 7.566407 31.300781 7.261719 10.890625.304688 21.675781-2.195312 31.320312-7.261719 11.753907-6.019531 24.824219-9.023437 38.027344-8.738281 13.203125-.285156 26.273437 2.714844 38.03125 8.738281 9.644531 5.066407 20.429687 7.566407 31.320313 7.261719 4.417968 0 8 3.582031 8 8s-3.582032 8-8 8h35.03125c41.972656.460938 76.402343-33.136719 76.96875-75.109375-.058594-20.785156-8.855469-40.585937-24.242188-54.5625-1.6875-1.550781-3.421875-3.039062-5.238281-4.421875-.648438-.503906-1.320313-.976562-1.992188-1.457031-1.847656-1.320312-3.738281-2.566406-5.6875-3.71875-.488281-.289062-.96875-.585938-1.464843-.863281-7.820313-4.375-16.328126-7.386719-25.160157-8.898438-.382812-.070312-.800781-.117187-1.167969-.175781-2.398437-.382812-4.894531-.632812-7.359374-.800781-.738282-.039063-1.472657-.078125-2.21875-.101563-2.246094-.082031-4.503907 0-6.757813.085938-.746094.042968-1.480469.050781-2.222656.113281-2.929688.222656-5.84375.613281-8.730469 1.167969-4.308594.851562-8.5-1.9375-9.382812-6.238282-6.210938-28.277343-31.355469-48.351562-60.304688-48.144531-1.289062 0-2.550781.125-3.824219.207031l-.800781.054688h-.085938c-7.277343.527344-14.402343 2.328125-21.058593 5.320312-2.007813.90625-4.304688.941407-6.34375.097657-2.039063-.839844-3.640625-2.488281-4.421875-4.554688-12.773438-32.640625-44.285156-54.089843-79.335938-54-46.1875-.496093-84.070312 36.476563-84.6875 82.664063.019532 9.421875 1.695313 18.761718 4.949219 27.601562.882813 2.414063.546875 5.105469-.894531 7.234375-1.445313 2.125-3.824219 3.429688-6.390625 3.5zm44.800782 55c13.195312-.285156 26.253906 2.714844 38 8.738281 9.636718 5.066407 20.417968 7.566407 31.300781 7.261719 10.890625.304688 21.675781-2.195312 31.320312-7.261719 11.753907-6.019531 24.824219-9.023437 38.027344-8.738281 13.203125-.285156 26.273437 2.714844 38.03125 8.738281 9.644531 5.066407 20.429687 7.566407 31.320313 7.261719 4.417968 0 8 3.582031 8 8s-3.582032 8-8 8c-13.203126.289063-26.273438-2.710937-38.023438-8.734375-9.648438-5.066406-20.4375-7.570312-31.328125-7.265625-10.890625-.304687-21.675781 2.199219-31.320313 7.265625-11.753906 6.023438-24.824218 9.023438-38.027343 8.734375-13.195313.289063-26.257813-2.714843-38.007813-8.734375-9.632812-5.066406-20.410156-7.566406-31.292968-7.265625-4.417969 0-8-3.582031-8-8s3.582031-8 8-8zm0 0"/><path d="m418.339844 151.074219c-45.0625-.980469-80.84375-38.234375-80-83.304688.210937-26.125 12.113281-50.785156 32.441406-67.199219-2.488281-.113281-4.9375-.113281-7.296875-.113281-50.414063 0-91.429687 43.066407-91.429687 96 0 1.601563.046874 3.203125.152343 4.914063.796875 0 1.597657.113281 2.34375.160156.941407.046875 1.886719.09375 2.824219.183594 1.117188.105468 2.230469.253906 3.335938.40625.941406.128906 1.894531.25 2.832031.410156 1.078125.183594 2.140625.421875 3.199219.65625.933593.199219 1.871093.390625 2.792968.625 1.046875.269531 2.070313.582031 3.101563.894531s1.839843.535157 2.746093.839844c.902344.304687 1.984376.734375 2.964844 1.113281.984375.375 1.808594.679688 2.691406 1.0625.878907.382813 1.886719.863282 2.832032 1.3125.941406.449219 1.75.800782 2.605468 1.261719.855469.464844 1.792969 1.011719 2.6875 1.523437.898438.511719 1.6875.949219 2.511719 1.460938s1.707031 1.136719 2.554688 1.714844c.847656.574218 1.597656 1.0625 2.398437 1.597656.800782.535156 1.601563 1.273438 2.402344 1.914062.796875.640626 1.503906 1.175782 2.230469 1.800782.726562.621094 1.527343 1.398437 2.289062 2.109375.757813.710937 1.398438 1.273437 2.070313 1.945312s1.433594 1.535157 2.144531 2.3125c.710937.773438 1.28125 1.351563 1.878906 2.054688.601563.703125 1.351563 1.6875 2.015625 2.542969.5625.714843 1.136719 1.410156 1.671875 2.144531.664063.914062 1.265625 1.863281 1.890625 2.808593.46875.71875.976563 1.417969 1.421875 2.152344.632813 1.039063 1.199219 2.113282 1.785157 3.199219.375.6875.800781 1.351563 1.136718 2.054687.613282 1.210938 1.152344 2.464844 1.703125 3.722657.265625.589843.558594 1.167969.800781 1.765625.757813 1.875 1.453126 3.785156 2.070313 5.730468 3.621094-.421874 7.261719-.632812 10.90625-.632812 3.007813 0 5.984375.167969 8.941406.441406.921875.085938 1.816407.238282 2.730469.351563 2.039062.253906 4.070312.535156 6.078125.910156.992187.191406 1.960937.433594 2.9375.648437 1.917969.425782 3.816406.894532 5.6875 1.441407.933594.269531 1.855469.558593 2.777344.863281 1.890625.609375 3.757812 1.28125 5.597656 2.015625.800781.328125 1.671875.671875 2.503906 1.023437 1.886719.800782 3.738281 1.695313 5.601563 2.632813.734375.375 1.480468.742187 2.199218 1.136719 1.855469 1.015625 3.664063 2.109375 5.457032 3.246094.648437.417968 1.3125.800781 1.949218 1.234374 1.800782 1.214844 3.546876 2.519532 5.265626 3.863282.558593.4375 1.136718.800781 1.679687 1.28125.214844.175781.449219.324218.664063.503906 10.042968-7.355469 18.480468-16.683594 24.800781-27.410156-7.042969 1.839844-14.296875 2.738281-21.578125 2.671875zm0 0"/><path d="m320.054688 400.457031c-10.890626.304688-21.675782-2.195312-31.320313-7.261719-11.757813-6.023437-24.828125-9.023437-38.03125-8.738281-13.203125-.285156-26.273437 2.71875-38.027344 8.738281-9.644531 5.066407-20.429687 7.566407-31.320312 7.261719-10.882813.304688-21.664063-2.195312-31.300781-7.261719-11.746094-6.023437-24.804688-9.023437-38-8.738281-4.417969 0-8 3.582031-8 8s3.582031 8 8 8c10.882812-.300781 21.660156 2.199219 31.292968 7.265625 11.75 6.019532 24.8125 9.023438 38.007813 8.734375 13.203125.289063 26.273437-2.710937 38.027343-8.734375 9.644532-5.066406 20.429688-7.570312 31.320313-7.265625 10.890625-.304687 21.679687 2.199219 31.328125 7.265625 11.75 6.023438 24.820312 9.023438 38.023438 8.734375 4.417968 0 8-3.582031 8-8s-3.582032-8-8-8zm0 0"/><path d="m320.054688 352.457031c-10.890626.304688-21.675782-2.195312-31.320313-7.261719-11.757813-6.023437-24.828125-9.023437-38.03125-8.738281-13.203125-.285156-26.273437 2.71875-38.027344 8.738281-9.644531 5.066407-20.429687 7.566407-31.320312 7.261719-10.882813.304688-21.664063-2.195312-31.300781-7.261719-11.746094-6.023437-24.804688-9.023437-38-8.738281-4.417969 0-8 3.582031-8 8s3.582031 8 8 8c10.882812-.300781 21.660156 2.199219 31.292968 7.265625 11.75 6.019532 24.8125 9.023438 38.007813 8.734375 13.203125.289063 26.273437-2.710937 38.027343-8.734375 9.644532-5.066406 20.429688-7.570312 31.320313-7.265625 10.890625-.304687 21.679687 2.199219 31.328125 7.265625 11.75 6.023438 24.820312 9.023438 38.023438 8.734375 4.417968 0 8-3.582031 8-8s-3.582032-8-8-8zm0 0"/></svg>