<svg height="448pt" viewBox="0 -40 448.97946 448" width="448pt" xmlns="http://www.w3.org/2000/svg"><path d="m112.980469 352.964844c10.882812-.308594 21.660156 2.195312 31.296875 7.261718 11.746094 6.023438 24.808594 9.023438 38.007812 8.738282 13.203125.285156 26.269532-2.714844 38.023438-8.738282 9.644531-5.066406 20.433594-7.570312 31.328125-7.261718 10.890625-.304688 21.675781 2.195312 31.320312 7.261718 11.75 6.023438 24.820313 9.023438 38.023438 8.738282 4.417969 0 8-3.582032 8-8 0-4.417969-3.582031-8-8-8-10.894531.304687-21.683594-2.199219-31.328125-7.265625-11.75-6.019531-24.816406-9.023438-38.015625-8.734375-13.207031-.289063-26.277344 2.714844-38.035157 8.734375-9.640624 5.066406-20.429687 7.570312-31.316406 7.265625-10.882812.304687-21.664062-2.199219-31.296875-7.265625-11.75-6.019531-24.8125-9.023438-38.007812-8.734375-4.417969 0-8 3.582031-8 8 0 4.417968 3.582031 8 8 8zm0 0"/><path d="m251.636719 256.964844c-10.894531-.308594-21.683594 2.195312-31.328125 7.261718-11.753906 6.023438-24.820313 9.023438-38.023438 8.738282h138.695313c-13.203125.285156-26.273438-2.714844-38.023438-8.738282-9.644531-5.066406-20.429687-7.566406-31.320312-7.261718zm0 0"/><path d="m72.980469 272.964844h109.304687c-13.199218.285156-26.261718-2.714844-38.007812-8.738282-9.636719-5.066406-20.414063-7.570312-31.296875-7.261718-4.417969 0-8-3.582032-8-8 0-4.417969 3.582031-8 8-8 13.195312-.289063 26.257812 2.714844 38.007812 8.734375 9.632813 5.066406 20.414063 7.570312 31.296875 7.265625 10.886719.304687 21.675782-2.199219 31.316406-7.265625 11.757813-6.019531 24.828126-9.023438 38.035157-8.734375 13.199219-.289063 26.265625 2.714844 38.015625 8.734375 9.644531 5.066406 20.433594 7.570312 31.328125 7.265625 4.417969 0 8 3.582031 8 8 0 4.417968-3.582031 8-8 8h48c44.183593 0 80-35.820313 80-80 0-44.183594-35.816407-80-80-80-5.324219.007812-10.632813.546875-15.847657 1.597656-4.332031.875-8.554687-1.929688-9.425781-6.261719-6.074219-29.832031-32.285156-51.285156-62.726562-51.335937-9.234375.003906-18.355469 2.019531-26.730469 5.910156-2.023438.933594-4.34375.980469-6.402344.128906-2.058594-.851562-3.667968-2.519531-4.445312-4.609375-16.566406-45.632812-66.992188-69.195312-112.625-52.628906-45.636719 16.570313-69.199219 66.996094-52.628906 112.628906.859374 2.414063.511718 5.089844-.9375 7.203125-1.445313 2.113282-3.816407 3.40625-6.375 3.476563-39.714844.617187-71.417969 33.300781-70.8281255 73.015625.5937495 39.71875 33.2539065 71.441406 72.9726565 70.875zm40-80c13.195312-.289063 26.257812 2.714844 38.007812 8.734375 9.632813 5.066406 20.414063 7.570312 31.296875 7.265625 10.886719.304687 21.675782-2.199219 31.316406-7.265625 11.757813-6.019531 24.828126-9.023438 38.035157-8.734375 13.199219-.289063 26.265625 2.714844 38.015625 8.734375 9.644531 5.066406 20.433594 7.570312 31.328125 7.265625 4.417969 0 8 3.582031 8 8 0 4.417968-3.582031 8-8 8-13.203125.285156-26.273438-2.714844-38.023438-8.738282-9.644531-5.066406-20.429687-7.566406-31.320312-7.261718-10.894531-.308594-21.683594 2.195312-31.328125 7.261718-11.753906 6.023438-24.820313 9.023438-38.023438 8.738282-13.199218.285156-26.261718-2.714844-38.007812-8.738282-9.636719-5.066406-20.414063-7.570312-31.296875-7.261718-4.417969 0-8-3.582032-8-8 0-4.417969 3.582031-8 8-8zm0 0"/><path d="m112.980469 304.964844c10.882812-.308594 21.660156 2.195312 31.296875 7.261718 11.746094 6.023438 24.808594 9.023438 38.007812 8.738282 13.203125.285156 26.269532-2.714844 38.023438-8.738282 9.644531-5.066406 20.433594-7.570312 31.328125-7.261718 10.890625-.304688 21.675781 2.195312 31.320312 7.261718 11.75 6.023438 24.820313 9.023438 38.023438 8.738282 4.417969 0 8-3.582032 8-8 0-4.417969-3.582031-8-8-8-10.894531.304687-21.683594-2.199219-31.328125-7.265625-11.75-6.019531-24.816406-9.023438-38.015625-8.734375-13.207031-.289063-26.277344 2.714844-38.035157 8.734375-9.640624 5.066406-20.429687 7.570312-31.316406 7.265625-10.882812.304687-21.664062-2.199219-31.296875-7.265625-11.75-6.019531-24.8125-9.023438-38.007812-8.734375-4.417969 0-8 3.582031-8 8 0 4.417968 3.582031 8 8 8zm0 0"/></svg>