<svg height="464pt" viewBox="0 -8 464.04898 464" width="464pt" xmlns="http://www.w3.org/2000/svg"><path d="m250.695312 336.023438c-10.886718-.304688-21.675781 2.199218-31.316406 7.265624-11.753906 6.019532-24.824218 9.023438-38.027344 8.734376h138.699219c-13.203125.289062-26.273437-2.714844-38.027343-8.734376-9.644532-5.070312-20.433594-7.570312-31.328126-7.265624zm0 0"/><path d="m69.289062 352.023438h112.0625c-13.195312.289062-26.257812-2.714844-38.007812-8.734376-9.636719-5.066406-20.414062-7.566406-31.292969-7.265624-4.421875 0-8-3.582032-8-8 0-4.417969 3.578125-8 8-8 13.195313-.285157 26.253907 2.714843 38 8.738281 9.636719 5.066406 20.417969 7.566406 31.300781 7.261719 10.890626.304687 21.675782-2.195313 31.320313-7.261719 11.753906-6.023438 24.820313-9.023438 38.023437-8.738281 13.207032-.285157 26.277344 2.714843 38.035157 8.738281 9.644531 5.066406 20.429687 7.566406 31.320312 7.261719 4.417969 0 8 3.582031 8 8 0 4.417968-3.582031 8-8 8h40c41.046875 0 72-32.285157 72-75.109376-.164062-27.09375-14.960937-51.984374-38.691406-65.066406-1.671875-.933594-3.382813-1.800781-5.117187-2.605468-.386719-.1875-.761719-.371094-1.152344-.546876-1.792969-.796874-3.613282-1.53125-5.464844-2.191406l-1.039062-.367187c-1.871094-.648438-3.777344-1.214844-5.6875-1.710938l-1.113282-.28125c-1.878906-.464843-3.769531-.855469-5.671875-1.175781-.519531-.089844-1.039062-.160156-1.601562-.230469-1.757813-.265625-3.535157-.480469-5.320313-.625-.796875-.066406-1.671875-.089843-2.511718-.128906-1.527344-.070313-3.0625-.144531-4.597657-.128906-1.160156 0-2.328125.105469-3.496093.167969-1.167969.066406-2.402344.097656-3.609376.21875-2.398437.246093-4.800781.582031-7.199218 1.054687-4.3125.847656-8.5-1.9375-9.382813-6.242187-6.210937-28.273438-31.359375-48.347657-60.304687-48.140626-8.886719.007813-17.667969 1.914063-25.753906 5.597657-2.011719.90625-4.308594.945312-6.347657.101562-2.035156-.84375-3.636719-2.492187-4.417969-4.558593-1.171874-3.023438-2.527343-5.972657-4.050781-8.839844-.269531-.527344-.535156-1.0625-.796875-1.597656-1.488281-2.683594-3.121094-5.28125-4.898437-7.785157-.414063-.582031-.847657-1.160156-1.277344-1.734375-1.796875-2.421875-3.722656-4.746094-5.769531-6.960937-.503906-.542969-1.054688-1.039063-1.601563-1.601563-1.671875-1.703125-3.421875-3.320312-5.238281-4.878906-.089844-.078125-.183594-.144531-.273438-.214844-15.472656-13.148437-35.109374-20.382812-55.414062-20.417968-46.191406-.496094-84.070312 36.476562-84.6875 82.664062.019531 9.421875 1.695312 18.761719 4.949219 27.601562.882812 2.414063.546875 5.105469-.894531 7.230469-1.445313 2.128907-3.824219 3.429688-6.390626 3.503907-24.296874.105468-46.667968 13.253906-58.570312 34.4375-11.902344 21.179687-11.507812 47.125 1.039062 67.933593 12.546876 20.808594 35.304688 33.269531 59.59375 32.628907zm42.761719-80c13.195313-.285157 26.253907 2.714843 38 8.738281 9.636719 5.066406 20.417969 7.566406 31.300781 7.261719 10.890626.304687 21.675782-2.195313 31.320313-7.261719 11.753906-6.023438 24.820313-9.023438 38.023437-8.738281 13.207032-.285157 26.277344 2.714843 38.035157 8.738281 9.644531 5.066406 20.429687 7.566406 31.320312 7.261719 4.417969 0 8 3.582031 8 8 0 4.417968-3.582031 8-8 8-13.203125.289062-26.273437-2.714844-38.027343-8.734376-9.644532-5.070312-20.433594-7.570312-31.328126-7.265624-10.886718-.304688-21.675781 2.199218-31.316406 7.265624-11.753906 6.019532-24.824218 9.023438-38.027344 8.734376-13.195312.289062-26.257812-2.714844-38.007812-8.734376-9.636719-5.066406-20.414062-7.566406-31.292969-7.265624-4.421875 0-8-3.582032-8-8 0-4.417969 3.578125-8 8-8zm0 0"/><path d="m456.050781 152.023438h-16c-4.421875 0-8 3.582031-8 8 0 4.417968 3.578125 8 8 8h16c4.417969 0 8-3.582032 8-8 0-4.417969-3.582031-8-8-8zm0 0"/><path d="m280.050781 24.023438c0 4.417968 3.578125 8 8 8 4.417969 0 8-3.582032 8-8v-16c0-4.417969-3.582031-8.0000005-8-8.0000005-4.421875 0-8 3.5820315-8 8.0000005zm0 0"/><path d="m405.703125 69.679688 16-16c3.035156-3.136719 2.992187-8.128907-.09375-11.214844-3.085937-3.085938-8.078125-3.128906-11.214844-.097656l-16 16c-2.082031 2.011718-2.914062 4.984374-2.183593 7.78125.734374 2.796874 2.917968 4.980468 5.714843 5.714843 2.796875.730469 5.769531-.101562 7.777344-2.183593zm0 0"/><path d="m223.800781 107.449219c2.957031 2.824219 5.738281 5.824219 8.328125 8.992187.976563 1.160156 1.9375 2.328125 2.847656 3.535156.71875.945313 1.410157 1.910157 2.097657 2.886719.984375 1.394531 1.917969 2.816407 2.832031 4.265625.542969.871094 1.109375 1.734375 1.597656 2.625 1.25 2.132813 2.402344 4.320313 3.519532 6.558594.105468.207031.234374.398438.328124.609375 5.960938-1.992187 12.140626-3.253906 18.402344-3.753906 2.09375-.171875 4.203125-.253907 6.320313-.253907 33.699219-.148437 63.640625 21.472657 74.101562 53.511719 3.621094-.421875 7.261719-.632812 10.90625-.632812 3.292969.003906 6.582031.175781 9.855469.519531.3125 0 .617188.105469.917969.144531 2.992187.335938 5.945312.800781 8.847656 1.414063.28125.066406.5625.152344.851563.21875 2.917968.648437 5.789062 1.414062 8.605468 2.328125.386719.125.761719.285156 1.152344.414062 2.667969.902344 5.285156 1.914063 7.855469 3.039063.175781.082031.367187.136718.546875.21875 4.191406-10.867188 6.339844-22.417969 6.335937-34.066406.019531-42.445313-27.851562-79.859376-68.523437-91.992188-40.675782-12.136719-84.488282 3.898438-107.726563 39.417969zm0 0"/><path d="m112.050781 432.023438c10.878907-.300782 21.65625 2.199218 31.292969 7.265624 11.75 6.019532 24.8125 9.023438 38.007812 8.734376 13.203126.289062 26.273438-2.714844 38.027344-8.734376 9.640625-5.066406 20.429688-7.570312 31.316406-7.265624 10.894532-.304688 21.683594 2.195312 31.328126 7.265624 11.753906 6.019532 24.824218 9.023438 38.027343 8.734376 4.417969 0 8-3.582032 8-8 0-4.417969-3.582031-8-8-8-10.890625.304687-21.675781-2.195313-31.320312-7.261719-11.757813-6.023438-24.828125-9.023438-38.035157-8.738281-13.203124-.285157-26.269531 2.714843-38.023437 8.738281-9.644531 5.066406-20.429687 7.566406-31.320313 7.261719-10.882812.304687-21.664062-2.195313-31.300781-7.261719-11.746093-6.023438-24.804687-9.023438-38-8.738281-4.421875 0-8 3.582031-8 8 0 4.417968 3.578125 8 8 8zm0 0"/><path d="m112.050781 384.023438c10.878907-.300782 21.65625 2.199218 31.292969 7.265624 11.75 6.019532 24.8125 9.023438 38.007812 8.734376 13.203126.289062 26.273438-2.714844 38.027344-8.734376 9.640625-5.066406 20.429688-7.570312 31.316406-7.265624 10.894532-.304688 21.683594 2.195312 31.328126 7.265624 11.753906 6.019532 24.824218 9.023438 38.027343 8.734376 4.417969 0 8-3.582032 8-8 0-4.417969-3.582031-8-8-8-10.890625.304687-21.675781-2.195313-31.320312-7.261719-11.757813-6.023438-24.828125-9.023438-38.035157-8.738281-13.203124-.285157-26.269531 2.714843-38.023437 8.738281-9.644531 5.066406-20.429687 7.566406-31.320313 7.261719-10.882812.304687-21.664062-2.195313-31.300781-7.261719-11.746093-6.023438-24.804687-9.023438-38-8.738281-4.421875 0-8 3.582031-8 8 0 4.417968 3.578125 8 8 8zm0 0"/></svg>